<svg width="21" height="21" fill="none" xmlns="http://www.w3.org/2000/svg"><path d="M13.45 5.644c-.044-.425-.09-.867-.203-1.307-.308-1.054-1.16-1.712-2.074-1.712-.51-.002-1.155.312-1.52.63L6.623 5.79H5.035c-1.168 0-2.107.899-2.284 2.196-.15 1.246-.187 3.597 0 4.968.163 1.37 1.06 2.256 2.284 2.256h1.586l3.09 2.573c.316.275.876.591 1.39.591l.092.001c.931 0 1.752-.682 2.06-1.733.116-.447.157-.866.196-1.271l.042-.401c.157-1.301.157-7.647 0-8.939l-.042-.387z" fill="#3483FF"/><path opacity=".4" d="M16.997 5.683a.796.796 0 00-1.118-.207.835.835 0 00-.201 1.144c.702 1.036 1.089 2.413 1.089 3.88 0 1.466-.387 2.845-1.09 3.88a.835.835 0 00.202 1.144.789.789 0 00.458.147.8.8 0 00.66-.354c.888-1.306 1.378-3.017 1.378-4.817 0-1.8-.49-3.51-1.378-4.817z" fill="#3483FF"/></svg>