<?xml version="1.0" encoding="UTF-8"?>
<!DOCTYPE svg PUBLIC "-//W3C//DTD SVG 1.1//EN" "http://www.w3.org/Graphics/SVG/1.1/DTD/svg11.dtd">
<svg xmlns="http://www.w3.org/2000/svg" version="1.1" width="287px" height="300px" style="shape-rendering:geometricPrecision; text-rendering:geometricPrecision; image-rendering:optimizeQuality; fill-rule:evenodd; clip-rule:evenodd" xmlns:xlink="http://www.w3.org/1999/xlink">
<g><path style="opacity:0.971" fill="#3584ff" d="M 133.5,-0.5 C 145.5,-0.5 157.5,-0.5 169.5,-0.5C 221.774,10.9282 258.607,41.2615 280,90.5C 282.662,98.1627 284.828,105.829 286.5,113.5C 286.5,123.833 286.5,134.167 286.5,144.5C 281.328,172.344 266.994,194.177 243.5,210C 239.534,214.967 235.201,219.634 230.5,224C 210.25,242.579 190.25,261.579 170.5,281C 157.778,290.197 143.778,296.364 128.5,299.5C 117.5,299.5 106.5,299.5 95.5,299.5C 44.0136,288.013 12.0136,256.68 -0.5,205.5C -0.5,195.5 -0.5,185.5 -0.5,175.5C 2.12853,161.135 7.96187,148.135 17,136.5C 34.0842,105.929 50.4176,74.9292 66,43.5C 81.7874,18.6805 104.287,4.01383 133.5,-0.5 Z M 78.5,106.5 C 130.517,106.588 168.017,129.921 191,176.5C 197.064,190.548 199.564,205.215 198.5,220.5C 145.024,221.349 103.524,199.682 74,155.5C 66.1496,142.618 60.6496,128.785 57.5,114C 57.7549,112.674 58.4216,111.674 59.5,111C 65.8902,109.16 72.2235,107.66 78.5,106.5 Z"/></g>
<g><path style="opacity:1" fill="#adcdff" d="M 144.5,1.5 C 200.887,3.42743 243.054,28.7608 271,77.5C 278.54,92.456 283.04,108.289 284.5,125C 284.045,126.724 283.212,128.224 282,129.5C 254.972,156.195 228.305,183.195 202,210.5C 196.387,165.426 173.221,132.926 132.5,113C 108.467,102.787 83.8001,100.787 58.5,107C 73.0845,102.213 88.0845,100.213 103.5,101C 107.697,94.968 111.697,88.8014 115.5,82.5C 111.284,81.1267 106.95,80.4601 102.5,80.5C 90.2363,81.1562 78.2363,82.9895 66.5,86C 83.2014,79.4391 100.535,76.7724 118.5,78C 123.425,71.6426 127.425,64.8092 130.5,57.5C 125.839,57.1679 121.172,56.8346 116.5,56.5C 109.152,57.2623 101.819,57.7623 94.5,58C 107.401,55.9314 120.401,54.9314 133.5,55C 137.708,48.0821 142.042,41.2488 146.5,34.5C 135.579,32.0932 124.579,31.9266 113.5,34C 104.302,35.9618 95.3022,38.2952 86.5,41C 106.427,31.2172 127.427,27.5505 149.5,30C 154.862,22.4967 159.528,14.6634 163.5,6.5C 140.356,3.47744 118.356,7.14411 97.5,17.5C 96.3044,17.1543 96.3044,16.6543 97.5,16C 112.205,7.59509 127.872,2.76175 144.5,1.5 Z"/></g>
<g><path style="opacity:1" fill="#3483ff" d="M 178.5,9.5 C 221.339,22.5058 252.505,49.1724 272,89.5C 275.665,97.148 277.665,105.148 278,113.5C 272.134,119.031 266.634,124.865 261.5,131C 245.663,81.9946 212.996,49.1612 163.5,32.5C 168.262,24.6342 173.262,16.9675 178.5,9.5 Z"/></g>
<g><path style="opacity:1" fill="#3483ff" d="M 160.5,36.5 C 210.921,51.2544 243.254,83.9211 257.5,134.5C 251.649,140.517 245.983,146.683 240.5,153C 226.003,105.5 194.836,74.0001 147,58.5C 150.753,50.8688 155.253,43.5355 160.5,36.5 Z"/></g>
<g><path style="opacity:1" fill="#3483ff" d="M 143.5,60.5 C 182.984,71.1475 211.818,94.8142 230,131.5C 233.399,138.865 235.899,146.532 237.5,154.5C 232.483,161.164 226.983,167.498 221,173.5C 207.967,126.8 178.301,96.1333 132,81.5C 131.333,80.5 131.333,79.5 132,78.5C 136.603,72.9519 140.437,66.9519 143.5,60.5 Z"/></g>
<g><path style="opacity:1" fill="#3483ff" d="M 127.5,84.5 C 165.105,93.7367 192.605,115.737 210,150.5C 213.532,158.595 216.365,166.928 218.5,175.5C 214.054,181.449 209.054,186.949 203.5,192C 202.517,192.591 201.85,192.257 201.5,191C 191.952,154.114 169.952,127.447 135.5,111C 128.925,108.21 122.258,105.71 115.5,103.5C 119.772,97.2792 123.772,90.9458 127.5,84.5 Z"/></g>
<g><path style="opacity:1" fill="#adcdff" d="M 101.5,253.5 C 105.668,254.722 109.835,256.056 114,257.5C 119.931,252.598 124.598,246.931 128,240.5C 76.486,220.82 45.986,183.82 36.5,129.5C 24.5085,149.892 13.0085,169.892 2,189.5C 1.66894,185.473 2.00228,181.473 3,177.5C 12.2813,159.097 22.4479,141.264 33.5,124C 36.0345,122.066 38.7012,120.732 41.5,120C 38.0789,125.501 37.5789,131.335 40,137.5C 52.0527,187.557 82.3861,221.223 131,238.5C 137.145,232.823 142.312,226.489 146.5,219.5C 101.601,204.434 71.4339,174.434 56,129.5C 54.3435,124.222 53.3435,118.889 53,113.5C 69.051,170.87 106.551,207.037 165.5,222C 143.2,246.634 120.534,270.968 97.5,295C 55.8603,288.046 26.3603,265.212 9,226.5C 7.14609,222.292 6.14609,217.959 6,213.5C 19.3203,252.154 45.3203,278.154 84,291.5C 89.3967,286.995 93.5633,281.662 96.5,275.5C 55.6557,261.488 28.8223,233.821 16,192.5C 15.3333,190.833 15.3333,189.167 16,187.5C 28.6073,230.608 56.1073,259.608 98.5,274.5C 103.844,270.155 108.511,265.155 112.5,259.5C 108.839,257.501 105.172,255.501 101.5,253.5 Z"/></g>
<g><path style="opacity:1" fill="#adcdff" d="M 283.5,131.5 C 283.93,141.236 282.43,150.903 279,160.5C 279.031,156.491 279.531,152.491 280.5,148.5C 280.167,147.5 279.833,146.5 279.5,145.5C 273.181,151.318 267.014,157.318 261,163.5C 260.256,168.552 259.256,173.552 258,178.5C 257.566,175.821 257.732,173.154 258.5,170.5C 258.167,169.5 257.833,168.5 257.5,167.5C 251.848,172.652 246.348,177.985 241,183.5C 239.908,186.044 239.241,188.711 239,191.5C 238.781,190.062 238.281,188.729 237.5,187.5C 232.181,192.318 227.015,197.318 222,202.5C 220.788,206.427 219.788,210.427 219,214.5C 218.949,211.723 218.782,209.057 218.5,206.5C 214.015,210.485 209.682,214.651 205.5,219C 204.234,219.309 203.067,219.809 202,220.5C 201.333,218.5 201.333,216.5 202,214.5C 229.631,187.186 256.798,159.52 283.5,131.5 Z"/></g>
<g><path style="opacity:1" fill="#adcdff" d="M 20.5,136.5 C 21.0431,136.56 21.3764,136.893 21.5,137.5C 16.9202,146.328 12.0869,154.995 7,163.5C 6.33333,162.5 6.33333,161.5 7,160.5C 11.2587,152.311 15.7587,144.311 20.5,136.5 Z"/></g>
<g><path style="opacity:1" fill="#adcdff" d="M 41.5,200.5 C 39.5839,199.335 38.7506,197.668 39,195.5C 40.3717,196.91 41.205,198.577 41.5,200.5 Z"/></g>
<g><path style="opacity:1" fill="#adcdff" d="M 41.5,200.5 C 56.5203,223.857 76.5203,241.523 101.5,253.5C 75.262,242.931 55.262,225.264 41.5,200.5 Z"/></g>
<g><path style="opacity:1" fill="#adcdff" d="M 168.5,222.5 C 178.499,223.034 188.499,223.7 198.5,224.5C 193.223,225.66 187.889,226.493 182.5,227C 177.617,232.595 172.617,238.095 167.5,243.5C 168.833,243.833 170.167,244.167 171.5,244.5C 175.818,243.631 180.151,243.464 184.5,244C 177.875,245.045 171.208,245.711 164.5,246C 159.318,251.015 154.318,256.181 149.5,261.5C 152.447,262.321 155.447,262.821 158.5,263C 154.5,263.333 150.5,263.667 146.5,264C 141.466,268.699 136.8,273.699 132.5,279C 136.167,279.333 139.833,279.667 143.5,280C 138.771,280.273 134.104,280.939 129.5,282C 124.985,286.348 120.651,290.848 116.5,295.5C 117.376,296.251 118.376,296.751 119.5,297C 113.109,297.758 106.776,297.424 100.5,296C 123.74,271.931 146.407,247.431 168.5,222.5 Z"/></g>
</svg>
