<?xml version="1.0" encoding="UTF-8"?>
<!DOCTYPE svg PUBLIC "-//W3C//DTD SVG 1.1//EN" "http://www.w3.org/Graphics/SVG/1.1/DTD/svg11.dtd">
<svg xmlns="http://www.w3.org/2000/svg" version="1.1" width="174px" height="174px" style="shape-rendering:geometricPrecision; text-rendering:geometricPrecision; image-rendering:optimizeQuality; fill-rule:evenodd; clip-rule:evenodd" xmlns:xlink="http://www.w3.org/1999/xlink">
<g><path style="opacity:0.1" fill="#bcdef7" d="M 101.5,16.5 C 98.3915,16.2641 95.3915,16.5975 92.5,17.5C 91.2617,17.19 91.2617,16.69 92.5,16C 95.6965,15.1955 98.6965,15.3622 101.5,16.5 Z"/></g>
<g><path style="opacity:1" fill="#3ea4f1" d="M 79.5,78.5 C 69.151,77.6654 58.8177,76.6654 48.5,75.5C 45.5777,69.7527 42.0777,64.4194 38,59.5C 33.7415,48.2126 30.9082,36.546 29.5,24.5C 31.6792,23.9408 33.8458,23.2741 36,22.5C 40.0381,23.2029 43.8715,22.3696 47.5,20C 51.1667,19.6667 54.8333,19.3333 58.5,19C 59.056,18.6174 59.3893,18.1174 59.5,17.5C 60.1667,17.5 60.8333,17.5 61.5,17.5C 67.509,17.299 73.509,16.9657 79.5,16.5C 79.5,37.1667 79.5,57.8333 79.5,78.5 Z"/></g>
<g><path style="opacity:0.616" fill="#6db8f3" d="M 80.5,78.5 C 80.1667,78.5 79.8333,78.5 79.5,78.5C 79.5,57.8333 79.5,37.1667 79.5,16.5C 73.509,16.9657 67.509,17.299 61.5,17.5C 65.7938,16.3975 70.2938,15.7308 75,15.5C 77.3747,15.4037 79.5413,15.9037 81.5,17C 80.5067,37.4242 80.1734,57.9242 80.5,78.5 Z"/></g>
<g><path style="opacity:1" fill="#3fa4f2" d="M 101.5,16.5 C 110.322,16.5198 118.989,17.5198 127.5,19.5C 127.611,20.1174 127.944,20.6174 128.5,21C 133.465,21.3367 138.131,22.5033 142.5,24.5C 143.451,37.7657 142.118,50.7657 138.5,63.5C 136.082,66.3982 134.415,69.7315 133.5,73.5C 119.923,76.4539 106.256,77.7873 92.5,77.5C 92.5,57.5 92.5,37.5 92.5,17.5C 95.3915,16.5975 98.3915,16.2641 101.5,16.5 Z"/></g>
<g><path style="opacity:0.012" fill="#f9eddc" d="M 37.5,20.5 C 36.8333,19.1667 36.8333,19.1667 37.5,20.5 Z"/></g>
<g><path style="opacity:1" fill="#66b2ee" d="M 59.5,17.5 C 59.3893,18.1174 59.056,18.6174 58.5,19C 54.8333,19.3333 51.1667,19.6667 47.5,20C 43.8715,22.3696 40.0381,23.2029 36,22.5C 33.8458,23.2741 31.6792,23.9408 29.5,24.5C 27.9582,25.3007 26.2915,25.634 24.5,25.5C 28.755,23.6371 33.0883,21.9704 37.5,20.5C 44.7295,18.8511 52.0629,17.8511 59.5,17.5 Z"/></g>
<g><path style="opacity:1" fill="#85bbe8" d="M 127.5,19.5 C 134.946,20.3199 141.946,22.3199 148.5,25.5C 146.5,25.1667 144.5,24.8333 142.5,24.5C 138.131,22.5033 133.465,21.3367 128.5,21C 127.944,20.6174 127.611,20.1174 127.5,19.5 Z"/></g>
<g><path style="opacity:1" fill="#3686d1" d="M 29.5,24.5 C 30.9082,36.546 33.7415,48.2126 38,59.5C 42.0777,64.4194 45.5777,69.7527 48.5,75.5C 43.7509,75.1966 39.0842,74.3632 34.5,73C 27.6553,69.9622 20.6553,67.2955 13.5,65C 7.58151,62.083 3.41484,57.583 1,51.5C 0.500027,77.4979 0.333361,103.498 0.5,129.5C 0.166667,129.5 -0.166667,129.5 -0.5,129.5C -0.5,101.167 -0.5,72.8333 -0.5,44.5C 0.537244,41.084 2.53724,38.4173 5.5,36.5C 8.08917,35.5806 10.0892,33.914 11.5,31.5C 15.2238,28.3612 19.5572,26.3612 24.5,25.5C 26.2915,25.634 27.9582,25.3007 29.5,24.5 Z"/></g>
<g><path style="opacity:1" fill="#3284ce" d="M 142.5,24.5 C 144.5,24.8333 146.5,25.1667 148.5,25.5C 151.912,26.0421 154.912,27.3754 157.5,29.5C 157.5,30.5 157.5,31.5 157.5,32.5C 159.199,32.3398 160.866,32.5065 162.5,33C 163.833,34.3333 163.833,35.6667 162.5,37C 164.866,37.4396 167.199,37.9396 169.5,38.5C 171.278,42.5653 171.945,46.8986 171.5,51.5C 170.326,52.5137 169.66,53.847 169.5,55.5C 159.125,64.6877 147.125,70.6877 133.5,73.5C 134.415,69.7315 136.082,66.3982 138.5,63.5C 142.118,50.7657 143.451,37.7657 142.5,24.5 Z"/></g>
<g><path style="opacity:0.694" fill="#81aed6" d="M 11.5,31.5 C 10.0892,33.914 8.08917,35.5806 5.5,36.5C 6.91083,34.086 8.91083,32.4194 11.5,31.5 Z"/></g>
<g><path style="opacity:1" fill="#73a3d6" d="M 157.5,29.5 C 162.681,31.0251 166.681,34.0251 169.5,38.5C 167.199,37.9396 164.866,37.4396 162.5,37C 163.833,35.6667 163.833,34.3333 162.5,33C 160.866,32.5065 159.199,32.3398 157.5,32.5C 157.5,31.5 157.5,30.5 157.5,29.5 Z"/></g>
<g><path style="opacity:1" fill="#70a6d2" d="M 169.5,38.5 C 171.539,39.6718 172.872,41.3384 173.5,43.5C 173.5,46.1667 173.5,48.8333 173.5,51.5C 172.833,51.5 172.167,51.5 171.5,51.5C 171.945,46.8986 171.278,42.5653 169.5,38.5 Z"/></g>
<g><path style="opacity:1" fill="#3483fe" d="M 48.5,75.5 C 58.8177,76.6654 69.151,77.6654 79.5,78.5C 79.8333,78.5 80.1667,78.5 80.5,78.5C 82.3035,79.162 84.3035,79.4954 86.5,79.5C 88.9522,79.4609 90.9522,78.7943 92.5,77.5C 106.256,77.7873 119.923,76.4539 133.5,73.5C 147.125,70.6877 159.125,64.6877 169.5,55.5C 170.79,54.9423 171.623,53.9423 172,52.5C 172.5,77.8311 172.667,103.164 172.5,128.5C 170.602,134.733 166.602,139.066 160.5,141.5C 158.821,141.285 157.821,141.952 157.5,143.5C 156.329,144.345 154.995,145.011 153.5,145.5C 151.102,145.259 149.102,145.926 147.5,147.5C 144.548,149.41 141.214,150.41 137.5,150.5C 134.848,150.41 132.515,151.076 130.5,152.5C 102.582,158.71 74.5822,159.043 46.5,153.5C 46.3893,152.883 46.056,152.383 45.5,152C 43.5273,151.505 41.5273,151.338 39.5,151.5C 36.6275,151.198 33.9608,150.531 31.5,149.5C 29.8984,147.926 27.8984,147.259 25.5,147.5C 20.0728,145.951 15.0728,143.618 10.5,140.5C 9.41543,138.413 7.74876,137.08 5.5,136.5C 3.10001,134.704 1.43334,132.37 0.5,129.5C 0.333361,103.498 0.500027,77.4979 1,51.5C 3.41484,57.583 7.58151,62.083 13.5,65C 20.6553,67.2955 27.6553,69.9622 34.5,73C 39.0842,74.3632 43.7509,75.1966 48.5,75.5 Z"/></g>
<g><path style="opacity:0.733" fill="#4d98fd" d="M 171.5,51.5 C 172.167,51.5 172.833,51.5 173.5,51.5C 173.5,77.1667 173.5,102.833 173.5,128.5C 173.167,128.5 172.833,128.5 172.5,128.5C 172.667,103.164 172.5,77.8311 172,52.5C 171.623,53.9423 170.79,54.9423 169.5,55.5C 169.66,53.847 170.326,52.5137 171.5,51.5 Z"/></g>
<g><path style="opacity:1" fill="#3a5b8e" d="M 163.5,71.5 C 165.927,72.2789 165.927,73.4455 163.5,75C 160.702,76.9137 157.702,77.9137 154.5,78C 157.921,76.3015 160.921,74.1348 163.5,71.5 Z"/></g>
<g><path style="opacity:1" fill="#3a6195" d="M 5.5,70.5 C 9.45275,72.7577 13.4528,75.091 17.5,77.5C 12.4447,77.2961 8.44473,74.9627 5.5,70.5 Z"/></g>
<g><path style="opacity:0.435" fill="#95c5fd" d="M 92.5,77.5 C 90.9522,78.7943 88.9522,79.4609 86.5,79.5C 84.3035,79.4954 82.3035,79.162 80.5,78.5C 84.6002,78.7633 88.6002,78.4299 92.5,77.5 Z"/></g>
<g><path style="opacity:1" fill="#445e92" d="M 130.5,84.5 C 132.527,84.3379 134.527,84.5045 136.5,85C 134.231,87.0229 131.564,87.8563 128.5,87.5C 128.5,104.833 128.5,122.167 128.5,139.5C 131.588,138.932 134.588,138.932 137.5,139.5C 130.345,142.463 123.011,143.797 115.5,143.5C 118.831,141.416 122.497,140.416 126.5,140.5C 126.5,123.167 126.5,105.833 126.5,88.5C 122.805,89.4603 119.139,89.4603 115.5,88.5C 120.583,87.0523 125.583,85.719 130.5,84.5 Z"/></g>
<g><path style="opacity:1" fill="#3d5c84" d="M 74.5,89.5 C 81.8635,89.1694 89.1968,89.5027 96.5,90.5C 92.8333,90.8333 89.1667,91.1667 85.5,91.5C 81.4348,91.4888 77.7681,90.8222 74.5,89.5 Z"/></g>
<g><path style="opacity:1" fill="#3f5682" d="M 77.5,105.5 C 85.6706,108.505 93.6706,112.005 101.5,116C 93.4772,119.009 85.6439,122.509 78,126.5C 77.5004,119.508 77.3337,112.508 77.5,105.5 Z"/></g>
<g><path style="opacity:1" fill="#3f6395" d="M 5.5,124.5 C 9.38589,126.366 13.0526,128.699 16.5,131.5C 16.1667,131.833 15.8333,132.167 15.5,132.5C 14.2054,131.902 12.8721,131.402 11.5,131C 8.70633,129.465 6.70633,127.298 5.5,124.5 Z"/></g>
<g><path style="opacity:1" fill="#40659c" d="M 163.5,125.5 C 165.942,125.354 166.609,126.187 165.5,128C 162.7,129.485 160.034,131.151 157.5,133C 156.365,133.749 155.365,133.583 154.5,132.5C 157.711,130.4 160.711,128.066 163.5,125.5 Z"/></g>
<g><path style="opacity:0.682" fill="#8bbaff" d="M 5.5,136.5 C 7.74876,137.08 9.41543,138.413 10.5,140.5C 8.25124,139.92 6.58457,138.587 5.5,136.5 Z"/></g>
<g><path style="opacity:1" fill="#4169a1" d="M 34.5,83.5 C 41.8147,85.1584 49.148,86.825 56.5,88.5C 53.1849,89.5527 49.8515,89.5527 46.5,88.5C 46.5,105.833 46.5,123.167 46.5,140.5C 49.6249,140.865 52.6249,141.698 55.5,143C 48.4032,143.149 41.4032,142.316 34.5,140.5C 34.5,139.5 34.5,138.5 34.5,137.5C 37.5,138.167 40.5,138.833 43.5,139.5C 43.5,122.167 43.5,104.833 43.5,87.5C 39.7636,87.459 36.7636,86.1257 34.5,83.5 Z"/></g>
<g><path style="opacity:0.592" fill="#83b5fb" d="M 160.5,141.5 C 159.71,142.401 158.71,143.068 157.5,143.5C 157.821,141.952 158.821,141.285 160.5,141.5 Z"/></g>
<g><path style="opacity:1" fill="#4580c9" d="M 96.5,144.5 C 89.3134,144.175 82.3134,144.509 75.5,145.5C 74.9569,145.44 74.6236,145.107 74.5,144.5C 81.9898,143.181 89.3231,143.181 96.5,144.5 Z"/></g>
<g><path style="opacity:1" fill="#406da7" d="M 96.5,144.5 C 96.0825,145.222 95.4158,145.722 94.5,146C 87.9863,146.82 81.6529,146.653 75.5,145.5C 82.3134,144.509 89.3134,144.175 96.5,144.5 Z"/></g>
<g><path style="opacity:0.396" fill="#96c5fc" d="M 153.5,145.5 C 151.786,146.738 149.786,147.405 147.5,147.5C 149.102,145.926 151.102,145.259 153.5,145.5 Z"/></g>
<g><path style="opacity:0.584" fill="#81b5f9" d="M 25.5,147.5 C 27.8984,147.259 29.8984,147.926 31.5,149.5C 29.2143,149.405 27.2143,148.738 25.5,147.5 Z"/></g>
<g><path style="opacity:0.655" fill="#69a7fd" d="M 39.5,151.5 C 41.5273,151.338 43.5273,151.505 45.5,152C 46.056,152.383 46.3893,152.883 46.5,153.5C 43.9902,153.073 41.6568,152.407 39.5,151.5 Z"/></g>
<g><path style="opacity:0.455" fill="#81b7fe" d="M 137.5,150.5 C 135.485,151.924 133.152,152.59 130.5,152.5C 132.515,151.076 134.848,150.41 137.5,150.5 Z"/></g>
</svg>
