<svg width="13" height="13" fill="none" xmlns="http://www.w3.org/2000/svg"><path d="M9.989 4.773c0 .034-.268 3.425-.422 4.852-.095.875-.66 1.406-1.507 1.422a85.1 85.1 0 0 1-1.914.02c-.665 0-1.316-.006-1.948-.02-.818-.02-1.383-.562-1.474-1.422-.158-1.432-.42-4.818-.426-4.852a.4.4 0 0 1 .096-.28.357.357 0 0 1 .263-.119h6.977c.1 0 .192.045.264.118.067.08.1.178.09.28Zm.682-1.767a.363.363 0 0 0-.358-.368H8.846a.645.645 0 0 1-.624-.512L8.14 1.76a.999.999 0 0 0-.957-.753H5.106c-.45 0-.843.31-.962.778l-.077.343a.645.645 0 0 1-.624.51H1.976a.363.363 0 0 0-.359.37v.19c0 .202.163.37.36.37h8.336a.367.367 0 0 0 .358-.37v-.19Z" fill="#fff"/></svg>