<svg  xmlns="http://www.w3.org/2000/svg" width="14" viewBox="0 0 23 19.71">

    <path  fill-rule="evenodd" clip-rule="evenodd" id="eye-slash"
          d="M13.747,8.647a5.214,5.214,0,0,0-5.23,5.189,4.992,4.992,0,0,0,.375,1.9L5.838,18.764A12.27,12.27,0,0,1,2.25,13.837,12.386,12.386,0,0,1,17.92,6.779L15.662,9.022A5.171,5.171,0,0,0,13.747,8.647ZM24.2,5.819,21.816,8.185l-.482.477a12.212,12.212,0,0,1,3.916,5.174A12.4,12.4,0,0,1,9.169,20.745l-.441.436L5.663,24.21,4.334,22.891,22.879,4.5Zm-5.78,5.733L16.8,13.159a2.94,2.94,0,0,1,.082.672,3.121,3.121,0,0,1-3.136,3.11,2.95,2.95,0,0,1-.678-.082l-1.622,1.607a5.2,5.2,0,0,0,7.53-4.64A5.127,5.127,0,0,0,18.423,11.552Zm-4.507-.806-3.3,3.27-.021-.164a3.121,3.121,0,0,1,3.136-3.11Z"
          transform="translate(-2.25 -4.5)" fill="#fff"/>
</svg>