<svg width="19" height="19" fill="none" xmlns="http://www.w3.org/2000/svg"><path d="M12.93 17.417H6.069c-2.683 0-4.486-1.882-4.486-4.684V6.267c0-2.801 1.803-4.684 4.486-4.684h6.862c2.683 0 4.485 1.883 4.485 4.684v6.466c0 2.802-1.802 4.684-4.486 4.684z" fill="#3483FF"/><path fill-rule="evenodd" clip-rule="evenodd" d="M8.902 6.868a1.97 1.97 0 01-1.968 1.967 1.97 1.97 0 01-1.967-1.967A1.97 1.97 0 016.934 4.9a1.97 1.97 0 011.968 1.968zm6.456 4.285c.184.179.317.383.404.6.264.66.127 1.45-.155 2.103a2.88 2.88 0 01-1.78 1.62 3.624 3.624 0 01-1.107.164H6.083c-.66 0-1.244-.154-1.723-.442-.3-.18-.353-.596-.13-.867.371-.451.739-.904 1.11-1.36.705-.875 1.181-1.128 1.71-.905.215.091.43.23.652.376.59.39 1.411.927 2.493.345.739-.405 1.168-1.096 1.541-1.698l.008-.012.075-.121c.127-.205.252-.407.394-.593.175-.23.828-.951 1.67-.438.538.323.99.76 1.474 1.228z" fill="#AECDFF"/></svg>