<svg width="21" height="21" fill="none" xmlns="http://www.w3.org/2000/svg"><path d="M17.701 6.335l-7.2 4.165-7.202-4.165c.148-.256.359-.47.612-.621l5.714-3.299a1.781 1.781 0 011.75 0l5.714 3.299c.254.151.465.365.612.621z" fill="#AECDFF"/><path d="M10.5 10.5v8.313c-.276 0-.548-.064-.796-.184l-5.767-3.334a1.753 1.753 0 01-.874-1.514V7.22c.001-.31.082-.615.236-.884L10.5 10.5z" fill="#5F9DFF"/><path d="M17.938 7.219v6.562a1.753 1.753 0 01-.875 1.514l-5.793 3.342c-.24.114-.504.174-.77.175V10.5l7.201-4.165c.154.27.235.574.236.884z" fill="#3483FF"/></svg>