<svg width="30" height="30" fill="none" xmlns="http://www.w3.org/2000/svg"><path d="M22.313 18.375h-3.5a.438.438 0 0 0-.438.438v3.5c0 .241.196.437.438.437h3.5a.438.438 0 0 0 .437-.438v-3.5a.438.438 0 0 0-.438-.437Zm-4.375-3.5h-2.625a.438.438 0 0 0-.438.438v2.624c0 .242.196.438.438.438h2.624a.438.438 0 0 0 .438-.438v-2.625a.438.438 0 0 0-.438-.437Zm7.875 7.875h-2.625a.438.438 0 0 0-.438.438v2.625c0 .241.196.437.438.437h2.625a.438.438 0 0 0 .437-.438v-2.625a.438.438 0 0 0-.438-.437Zm0-7.875h-1.75a.438.438 0 0 0-.438.438v1.75c0 .241.196.437.438.437h1.75a.438.438 0 0 0 .437-.438v-1.75a.438.438 0 0 0-.438-.437Zm-8.75 8.75h-1.75a.438.438 0 0 0-.438.438v1.75c0 .241.196.437.438.437h1.75a.438.438 0 0 0 .437-.438v-1.75a.438.438 0 0 0-.438-.437Z" fill="#3483FF" fill-opacity=".3"/><path d="M24.5 1.75h-7.875a1.75 1.75 0 0 0-1.75 1.75v7.875a1.75 1.75 0 0 0 1.75 1.75H24.5a1.75 1.75 0 0 0 1.75-1.75V3.5a1.75 1.75 0 0 0-1.75-1.75Zm-1.75 7.438a.438.438 0 0 1-.438.437h-3.5a.438.438 0 0 1-.437-.438v-3.5a.438.438 0 0 1 .438-.437h3.5a.438.438 0 0 1 .437.438v3.5ZM11.375 1.75H3.5A1.75 1.75 0 0 0 1.75 3.5v7.875a1.75 1.75 0 0 0 1.75 1.75h7.875a1.75 1.75 0 0 0 1.75-1.75V3.5a1.75 1.75 0 0 0-1.75-1.75Zm-1.75 7.438a.437.437 0 0 1-.438.437h-3.5a.437.437 0 0 1-.437-.438v-3.5a.437.437 0 0 1 .438-.437h3.5a.437.437 0 0 1 .437.438v3.5Zm1.75 5.687H3.5a1.75 1.75 0 0 0-1.75 1.75V24.5a1.75 1.75 0 0 0 1.75 1.75h7.875a1.75 1.75 0 0 0 1.75-1.75v-7.875a1.75 1.75 0 0 0-1.75-1.75Zm-1.75 7.438a.438.438 0 0 1-.438.437h-3.5a.438.438 0 0 1-.437-.438v-3.5a.438.438 0 0 1 .438-.437h3.5a.438.438 0 0 1 .437.438v3.5Z" fill="#3483FF"/></svg>