<?xml version="1.0" encoding="UTF-8"?>
<!DOCTYPE svg PUBLIC "-//W3C//DTD SVG 1.1//EN" "http://www.w3.org/Graphics/SVG/1.1/DTD/svg11.dtd">
<svg xmlns="http://www.w3.org/2000/svg" version="1.1" width="74px" height="74px" style="shape-rendering:geometricPrecision; text-rendering:geometricPrecision; image-rendering:optimizeQuality; fill-rule:evenodd; clip-rule:evenodd" xmlns:xlink="http://www.w3.org/1999/xlink">
<g><path style="opacity:0.98" fill="#3182ff" d="M 27.5,-0.5 C 33.1667,-0.5 38.8333,-0.5 44.5,-0.5C 55.0336,2.19237 63.2003,8.19237 69,17.5C 70.62,20.8932 72.12,24.2265 73.5,27.5C 73.5,33.1667 73.5,38.8333 73.5,44.5C 70.8076,55.0336 64.8076,63.2003 55.5,69C 52.1068,70.62 48.7735,72.12 45.5,73.5C 39.8333,73.5 34.1667,73.5 28.5,73.5C 17.9664,70.8076 9.79968,64.8076 4,55.5C 2.37997,52.1068 0.879972,48.7735 -0.5,45.5C -0.5,39.8333 -0.5,34.1667 -0.5,28.5C 2.19237,17.9664 8.19237,9.79968 17.5,4C 20.8932,2.37997 24.2265,0.879972 27.5,-0.5 Z M 52.5,14.5 C 54.1667,16.8333 56.1667,18.8333 58.5,20.5C 68.2544,40.8255 62.5878,54.9922 41.5,63C 25.0608,64.564 14.5608,57.3974 10,41.5C 8.43598,25.0608 15.6026,14.5608 31.5,10C 39.0985,8.81703 46.0985,10.317 52.5,14.5 Z"/></g>
<g><path style="opacity:0.432" fill="#3081ff" d="M 52.5,14.5 C 55.5,15.5 57.5,17.5 58.5,20.5C 56.1667,18.8333 54.1667,16.8333 52.5,14.5 Z"/></g>
</svg>
