<?xml version="1.0" encoding="UTF-8"?>
<!DOCTYPE svg PUBLIC "-//W3C//DTD SVG 1.1//EN" "http://www.w3.org/Graphics/SVG/1.1/DTD/svg11.dtd">
<svg xmlns="http://www.w3.org/2000/svg" version="1.1" width="36px" height="35px" style="shape-rendering:geometricPrecision; text-rendering:geometricPrecision; image-rendering:optimizeQuality; fill-rule:evenodd; clip-rule:evenodd" xmlns:xlink="http://www.w3.org/1999/xlink">
<g><path style="opacity:0.934" fill="#5f9cff" d="M 18.5,9.5 C 18.8333,11.5 19.1667,13.5 19.5,15.5C 14.4893,15.5199 11.156,17.8533 9.5,22.5C 6.16667,22.5 2.83333,22.5 -0.5,22.5C -0.5,21.8333 -0.5,21.1667 -0.5,20.5C 3.89204,14.0657 8.0587,7.39905 12,0.5C 14.1882,3.56718 16.3548,6.56718 18.5,9.5 Z"/></g>
<g><path style="opacity:0.887" fill="#accbff" d="M 35.5,5.5 C 35.5,11.1667 35.5,16.8333 35.5,22.5C 33.1667,22.5 30.8333,22.5 28.5,22.5C 26.9172,18.241 23.9172,15.9077 19.5,15.5C 19.1667,13.5 18.8333,11.5 18.5,9.5C 18.5,8.16667 18.5,6.83333 18.5,5.5C 24.1667,5.5 29.8333,5.5 35.5,5.5 Z"/></g>
<g><path style="opacity:0.969" fill="#3483ff" d="M 19.5,15.5 C 23.9172,15.9077 26.9172,18.241 28.5,22.5C 28.445,31.2025 24.1116,34.7025 15.5,33C 11.5714,30.6471 9.57139,27.1471 9.5,22.5C 11.156,17.8533 14.4893,15.5199 19.5,15.5 Z"/></g>
</svg>
