<?xml version="1.0" encoding="UTF-8"?>
<!DOCTYPE svg PUBLIC "-//W3C//DTD SVG 1.1//EN" "http://www.w3.org/Graphics/SVG/1.1/DTD/svg11.dtd">
<svg xmlns="http://www.w3.org/2000/svg" version="1.1" width="103px" height="116px" style="shape-rendering:geometricPrecision; text-rendering:geometricPrecision; image-rendering:optimizeQuality; fill-rule:evenodd; clip-rule:evenodd" xmlns:xlink="http://www.w3.org/1999/xlink">
<g><path style="opacity:0.987" fill="#3283ff" d="M 35.5,-0.5 C 45.1667,-0.5 54.8333,-0.5 64.5,-0.5C 76.8441,1.11966 87.6774,6.11966 97,14.5C 98,16.5 99,18.5 100,20.5C 100.667,44.8333 100.667,69.1667 100,93.5C 97.5587,99.6076 93.3921,104.108 87.5,107C 70.8623,114.076 53.529,116.409 35.5,114C 26.7145,112.738 18.3812,110.071 10.5,106C 5.92732,102.93 2.26065,99.0964 -0.5,94.5C -0.5,69.5 -0.5,44.5 -0.5,19.5C 4.71421,11.3707 12.0475,5.87071 21.5,3C 26.2954,1.80115 30.9621,0.634482 35.5,-0.5 Z M 40.5,11.5 C 54.7174,10.364 68.3841,12.5307 81.5,18C 90.371,22.2281 90.7043,26.8948 82.5,32C 59.9994,42.2174 37.6661,41.884 15.5,31C 10.0678,26.6757 10.4012,22.6757 16.5,19C 24.2326,15.2406 32.2326,12.7406 40.5,11.5 Z"/></g>
</svg>
