<?xml version="1.0" encoding="UTF-8"?>
<!DOCTYPE svg PUBLIC "-//W3C//DTD SVG 1.1//EN" "http://www.w3.org/Graphics/SVG/1.1/DTD/svg11.dtd">
<svg xmlns="http://www.w3.org/2000/svg" version="1.1" width="109px" height="116px" style="shape-rendering:geometricPrecision; text-rendering:geometricPrecision; image-rendering:optimizeQuality; fill-rule:evenodd; clip-rule:evenodd" xmlns:xlink="http://www.w3.org/1999/xlink">
<g><path style="opacity:0.982" fill="#3183ff" d="M 49.5,-0.5 C 51.1667,-0.5 52.8333,-0.5 54.5,-0.5C 70.7726,7.63628 87.1059,15.8029 103.5,24C 86.6602,33.1699 69.4936,41.6699 52,49.5C 35.1732,42.0033 18.6732,33.8366 2.5,25C 18.2285,16.4716 33.8952,7.97161 49.5,-0.5 Z"/></g>
<g><path style="opacity:0.971" fill="#3282ff" d="M 56.5,115.5 C 55.5,115.5 54.5,115.5 53.5,115.5C 53.3334,94.4974 53.5,73.4974 54,52.5C 71.0889,43.7055 88.2556,35.0388 105.5,26.5C 106.666,47.4921 106.833,68.4921 106,89.5C 89.5175,98.3233 73.0175,106.99 56.5,115.5 Z"/></g>
<g><path style="opacity:0.974" fill="#3283ff" d="M 1.5,28.5 C 17.8032,36.0679 33.9699,44.0679 50,52.5C 50.6667,73.1667 50.6667,93.8333 50,114.5C 33.8427,106.422 17.8427,98.0884 2,89.5C 1.50004,69.1694 1.33338,48.8361 1.5,28.5 Z"/></g>
</svg>
