<?xml version="1.0" encoding="UTF-8"?>
<!DOCTYPE svg PUBLIC "-//W3C//DTD SVG 1.1//EN" "http://www.w3.org/Graphics/SVG/1.1/DTD/svg11.dtd">
<svg xmlns="http://www.w3.org/2000/svg" version="1.1" width="106px" height="106px" style="shape-rendering:geometricPrecision; text-rendering:geometricPrecision; image-rendering:optimizeQuality; fill-rule:evenodd; clip-rule:evenodd" xmlns:xlink="http://www.w3.org/1999/xlink">
<g><path style="opacity:0.976" fill="#3283ff" d="M 42.5,-0.5 C 43.1667,-0.5 43.8333,-0.5 44.5,-0.5C 40.4525,7.68498 37.9525,16.3516 37,25.5C 35.6946,38.7986 35.1946,52.132 35.5,65.5C 26.3291,65.0617 17.3291,63.5617 8.5,61C 5.13813,59.6574 2.13813,57.824 -0.5,55.5C -0.5,50.8333 -0.5,46.1667 -0.5,41.5C 5.941,19.3921 20.2743,5.39206 42.5,-0.5 Z"/></g>
<g><path style="opacity:0.986" fill="#3283ff" d="M 49.5,-0.5 C 53.8333,-0.5 58.1667,-0.5 62.5,-0.5C 85.1667,5.5 99.5,19.8333 105.5,42.5C 105.5,46.8333 105.5,51.1667 105.5,55.5C 99.1445,60.5681 91.8112,63.4014 83.5,64C 68.8618,66.2324 54.1951,66.7324 39.5,65.5C 37.6412,45.1648 39.4745,25.1648 45,5.5C 46.332,3.34004 47.832,1.34004 49.5,-0.5 Z"/></g>
<g><path style="opacity:0.967" fill="#3283ff" d="M -0.5,60.5 C 10.5516,65.6793 22.2182,68.5126 34.5,69C 35,69.5 35.5,70 36,70.5C 36.4874,82.7818 39.3207,94.4484 44.5,105.5C 43.8333,105.5 43.1667,105.5 42.5,105.5C 19.8333,99.5 5.5,85.1667 -0.5,62.5C -0.5,61.8333 -0.5,61.1667 -0.5,60.5 Z"/></g>
<g><path style="opacity:0.98" fill="#3283ff" d="M 105.5,60.5 C 105.5,61.1667 105.5,61.8333 105.5,62.5C 99.4962,85.1705 85.1628,99.5038 62.5,105.5C 58.1667,105.5 53.8333,105.5 49.5,105.5C 46.6704,103.157 44.8371,100.157 44,96.5C 41.4294,87.6712 39.9294,78.6712 39.5,69.5C 58.0596,70.4777 76.393,68.9777 94.5,65C 98.188,63.4873 101.855,61.9873 105.5,60.5 Z"/></g>
</svg>
