<?xml version="1.0" encoding="UTF-8"?>
<!DOCTYPE svg PUBLIC "-//W3C//DTD SVG 1.1//EN" "http://www.w3.org/Graphics/SVG/1.1/DTD/svg11.dtd">
<svg xmlns="http://www.w3.org/2000/svg" version="1.1" width="138px" height="106px" style="shape-rendering:geometricPrecision; text-rendering:geometricPrecision; image-rendering:optimizeQuality; fill-rule:evenodd; clip-rule:evenodd" xmlns:xlink="http://www.w3.org/1999/xlink">
<g><path style="opacity:0.973" fill="#3283ff" d="M 137.5,37.5 C 137.5,44.5 137.5,51.5 137.5,58.5C 132.265,77.7191 119.599,87.7191 99.5,88.5C 90.2272,87.5977 81.2272,85.5977 72.5,82.5C 72.3505,81.448 72.5172,80.448 73,79.5C 77.6876,75.3114 82.5209,71.3114 87.5,67.5C 110.446,74.0599 120.946,65.3933 119,41.5C 111.322,19.0284 97.1554,13.8617 76.5,26C 68.539,31.627 61.539,38.2936 55.5,46C 54.5,46.6667 53.5,46.6667 52.5,46C 48.1364,42.6324 44.1364,38.9657 40.5,35C 51.7715,19.7374 66.4382,9.07075 84.5,3C 112.323,-1.08913 129.99,10.4109 137.5,37.5 Z"/></g>
<g><path style="opacity:0.966" fill="#3283ff" d="M -0.5,24.5 C -0.5,21.5 -0.5,18.5 -0.5,15.5C 3.37588,10.3379 8.37588,9.1712 14.5,12C 20.4022,19.9081 27.0688,27.2415 34.5,34C 44.2152,42.0498 54.2152,49.7165 64.5,57C 60.2799,61.723 55.6133,65.8897 50.5,69.5C 31.6974,56.5899 14.6974,41.5899 -0.5,24.5 Z"/></g>
<g><path style="opacity:0.87" fill="#3485ff" d="M 19.5,16.5 C 19.56,15.9569 19.8933,15.6236 20.5,15.5C 28.3241,19.245 35.9908,23.245 43.5,27.5C 42.289,29.4219 40.9557,31.2552 39.5,33C 38.5,33.6667 37.5,33.6667 36.5,33C 30.9647,27.2971 25.2981,21.7971 19.5,16.5 Z"/></g>
<g><path style="opacity:0.964" fill="#3283ff" d="M 66.5,35.5 C 75.0903,35.6517 83.4236,37.1517 91.5,40C 97.8802,46.2052 98.0469,52.7052 92,59.5C 77.0024,74.5062 60.8357,88.0062 43.5,100C 23.3753,107.692 14.5419,100.858 17,79.5C 18.8904,70.9955 22.0571,62.9955 26.5,55.5C 27.0016,54.479 27.6683,54.3123 28.5,55C 32.8535,58.6904 37.1868,62.3571 41.5,66C 39.6381,70.8905 37.6381,75.7238 35.5,80.5C 33.1667,81.8333 30.8333,83.1667 28.5,84.5C 29.7757,85.6446 31.109,85.6446 32.5,84.5C 50.0051,73.3283 65.6718,59.995 79.5,44.5C 78.9984,43.479 78.3317,43.3123 77.5,44C 74.9474,48.0542 71.6141,51.2209 67.5,53.5C 63.7743,53.0723 60.441,51.739 57.5,49.5C 56.4173,48.635 56.2506,47.635 57,46.5C 60.0024,42.6662 63.1691,38.9995 66.5,35.5 Z"/></g>
</svg>
