<?xml version="1.0" encoding="UTF-8"?>
<!DOCTYPE svg PUBLIC "-//W3C//DTD SVG 1.1//EN" "http://www.w3.org/Graphics/SVG/1.1/DTD/svg11.dtd">
<svg xmlns="http://www.w3.org/2000/svg" version="1.1" width="103px" height="113px" style="shape-rendering:geometricPrecision; text-rendering:geometricPrecision; image-rendering:optimizeQuality; fill-rule:evenodd; clip-rule:evenodd" xmlns:xlink="http://www.w3.org/1999/xlink">
<g><path style="opacity:0.983" fill="#3283ff" d="M 47.5,-0.5 C 49.8333,-0.5 52.1667,-0.5 54.5,-0.5C 68.2154,29.2658 82.2154,58.9325 96.5,88.5C 95.8333,88.8333 95.1667,89.1667 94.5,89.5C 65.5,84.1667 36.5,84.1667 7.5,89.5C 6.83333,89.1667 6.16667,88.8333 5.5,88.5C 19.7846,58.9325 33.7846,29.2658 47.5,-0.5 Z"/></g>
<g><path style="opacity:0.974" fill="#3283ff" d="M 102.5,100.5 C 102.5,101.833 102.5,103.167 102.5,104.5C 100.315,106.762 97.6485,108.262 94.5,109C 87.7189,110.321 81.0522,111.488 74.5,112.5C 58.8333,112.5 43.1667,112.5 27.5,112.5C 20.9478,111.488 14.2811,110.321 7.5,109C 4.35151,108.262 1.68484,106.762 -0.5,104.5C -0.5,103.167 -0.5,101.833 -0.5,100.5C 4.04211,97.5952 9.04211,95.7618 14.5,95C 38.8333,91.6667 63.1667,91.6667 87.5,95C 92.9579,95.7618 97.9579,97.5952 102.5,100.5 Z"/></g>
</svg>
