<svg width="22" height="22" fill="none" xmlns="http://www.w3.org/2000/svg"><path opacity=".4" d="M19.553 6.822a1.267 1.267 0 00-1.258-.058l-1.359.686a1.483 1.483 0 00-.814 1.334v5.348c0 .569.312 1.08.814 1.335l1.358.685a1.256 1.256 0 001.26-.058 1.31 1.31 0 00.612-1.117V7.94c0-.458-.229-.876-.613-1.118z" fill="#3483FF"/><path d="M10.913 18.333h-5.31c-2.22 0-3.77-1.53-3.77-3.722V8.306c0-2.193 1.55-3.723 3.77-3.723h5.31c2.22 0 3.77 1.53 3.77 3.723v6.305c0 2.191-1.55 3.722-3.77 3.722z" fill="#3483FF"/></svg>