<svg width="13" height="13" fill="none" xmlns="http://www.w3.org/2000/svg">
    <path fill-rule="evenodd" clip-rule="evenodd"
          d="M9.56 3.258c.92.71 1.703 1.751 2.265 3.053a.392.392 0 0 1 0 .308c-1.125 2.602-3.128 4.16-5.357 4.16h-.006c-2.224 0-4.227-1.558-5.352-4.16a.392.392 0 0 1 0-.308c1.125-2.604 3.128-4.155 5.352-4.155h.006c1.114 0 2.171.386 3.091 1.102Zm-5.196 3.21c0 1.149.942 2.085 2.104 2.085a2.094 2.094 0 0 0 2.097-2.086c0-1.155-.94-2.09-2.097-2.09a2.096 2.096 0 0 0-2.104 2.09Z"
          fill="#fff"/>
    <path d="M7.778 6.466c0 .716-.589 1.3-1.31 1.3a1.31 1.31 0 0 1-1.314-1.3c0-.09.01-.172.027-.256h.026c.584 0 1.057-.46 1.078-1.035.058-.01.12-.016.184-.016.72 0 1.309.585 1.309 1.307Z"
          fill="#fff"/>
</svg>